<?xml version="1.0" standalone="no"?>
<!DOCTYPE svg PUBLIC "-//W3C//DTD SVG 20010904//EN"
 "http://www.w3.org/TR/2001/REC-SVG-20010904/DTD/svg10.dtd">
<svg version="1.0" xmlns="http://www.w3.org/2000/svg"
 width="330.000000pt" height="330.000000pt" viewBox="0 0 330.000000 330.000000"
 preserveAspectRatio="xMidYMid meet">

<g transform="translate(0.000000,330.000000) scale(0.100000,-0.100000)"
fill="#000000" stroke="none">
<path d="M1644 3037 c-2 -7 -3 -29 -2 -48 3 -34 2 -34 -37 -34 -33 0 -40 -3
-40 -20 0 -16 8 -21 42 -23 l43 -3 -7 -105 -6 -106 29 4 29 3 3 103 3 102 40
0 c36 0 40 2 37 23 -3 19 -8 22 -41 20 l-37 -2 0 49 c0 47 -2 50 -25 50 -14 0
-28 -6 -31 -13z"/>
<path d="M2256 2952 c-2 -4 -1 -14 4 -22 5 -8 7 -24 4 -35 -4 -18 0 -20 34
-20 l39 0 0 42 c0 38 -2 41 -19 32 -12 -6 -25 -6 -37 1 -11 5 -22 6 -25 2z"/>
<path d="M2511 2770 c-17 -10 -7 -40 13 -40 7 0 16 6 19 14 8 19 -15 37 -32
26z"/>
<path d="M597 2575 c-18 -17 -12 -51 10 -59 37 -15 69 34 41 62 -16 16 -33 15
-51 -3z"/>
<path d="M394 2346 c-7 -19 3 -36 22 -36 10 0 14 8 12 22 -4 26 -26 36 -34 14z"/>
<path d="M1558 2319 c-64 -23 -121 -73 -185 -164 -56 -79 -69 -140 -55 -260 6
-60 7 -96 0 -109 -10 -19 -6 -75 7 -108 6 -15 -7 -17 -134 -20 l-141 -3 -29
-30 -29 -30 -4 -355 c-2 -195 1 -365 5 -377 7 -20 5 -23 -18 -23 -40 0 -87
-52 -84 -93 2 -17 -3 -44 -11 -60 -13 -26 -16 -27 -92 -27 l-79 0 22 29 c29
40 24 139 -9 174 -12 13 -22 36 -22 52 0 15 -7 33 -15 39 -14 10 -14 19 -4 66
7 30 23 66 36 81 26 29 29 39 9 39 -18 0 -66 -64 -66 -89 0 -11 -4 -23 -10
-26 -5 -3 -10 -15 -10 -25 0 -25 -12 -31 -70 -34 -28 -1 -53 -6 -57 -10 -4 -4
28 -6 72 -5 84 3 105 -2 105 -27 0 -19 -108 -20 -124 0 -6 7 -26 16 -43 20
-32 5 -33 4 -33 -27 0 -20 -8 -42 -20 -55 -12 -12 -17 -22 -13 -22 4 0 2 -5
-5 -12 -20 -20 -15 -106 9 -136 l21 -27 -118 -3 c-134 -3 -160 -14 -150 -64 5
-27 4 -28 -34 -28 -22 0 -40 -4 -40 -10 0 -7 523 -10 1550 -10 1027 0 1550 3
1550 10 0 6 -18 10 -40 10 -38 0 -40 1 -40 31 0 50 -21 58 -147 59 -69 0 -113
4 -113 10 0 6 -53 10 -139 10 -83 0 -142 -4 -146 -10 -4 -6 -75 -10 -180 -10
-161 0 -173 1 -168 18 5 20 -22 48 -52 54 -14 2 -21 12 -23 36 l-3 32 69 0
c83 0 125 13 146 45 24 36 24 729 0 763 -30 43 -64 52 -200 52 -116 0 -126 1
-118 18 16 37 16 92 -1 118 -14 22 -15 39 -7 138 6 62 6 132 2 155 -17 94
-103 170 -253 223 -95 34 -184 36 -269 7z m295 -41 c100 -39 179 -109 197
-177 17 -66 4 -256 -22 -298 -11 -18 -24 -33 -29 -33 -5 0 -9 31 -9 70 0 92
-17 168 -47 207 -35 48 -60 50 -139 13 -79 -38 -121 -37 -203 4 -90 45 -116
33 -152 -68 -16 -47 -20 -83 -20 -198 0 -136 -8 -183 -14 -79 -2 51 -25 91
-50 91 -16 0 -25 56 -25 163 0 96 24 165 61 174 10 3 19 12 19 21 0 25 48 80
94 107 91 53 207 54 339 3z m-275 -227 c72 -50 166 -52 253 -4 59 31 72 27
106 -33 25 -45 40 -203 29 -298 l-7 -56 -255 0 -254 0 -1 68 c-4 186 4 250 41
310 23 37 49 41 88 13z m-198 -280 c5 -11 10 -41 10 -66 0 -38 -3 -46 -17 -43
-22 4 -47 70 -39 103 8 30 31 33 46 6z m690 -6 c12 -31 -10 -99 -33 -103 -14
-3 -17 6 -17 50 0 72 30 105 50 53z m306 -158 l24 -28 0 -350 0 -350 -25 -24
-24 -25 -241 0 c-233 0 -240 1 -242 20 -5 59 -14 55 132 60 l135 6 -137 2
-136 2 -6 28 c-3 15 -10 70 -16 122 -16 130 -26 140 -137 140 -121 0 -114 11
-149 -247 l-6 -43 -137 -2 -136 -2 133 -3 132 -4 0 -39 0 -40 -242 0 c-234 0
-242 1 -265 22 l-23 21 0 353 c0 194 3 360 6 369 17 43 35 45 702 42 l634 -2
24 -28z m-588 -435 c13 -13 23 -68 46 -250 15 -128 26 -235 24 -238 -3 -2 -74
-5 -159 -6 l-154 -1 2 29 c1 16 13 123 28 239 31 247 30 245 131 245 48 0 68
-4 82 -18z m-1111 -134 c-3 -8 -6 -5 -6 6 -1 11 2 17 5 13 3 -3 4 -12 1 -19z
m382 -231 c32 -16 44 -50 26 -74 -12 -15 -17 -16 -34 -5 -13 7 -21 8 -21 2 0
-14 -47 -12 -53 3 -4 9 -8 8 -16 -3 -8 -12 -14 -12 -28 -4 -27 17 -27 41 1 69
28 28 84 34 125 12z m287 -10 c3 -2 2 -12 -2 -21 -4 -11 -18 -16 -43 -16 -21
0 -46 -7 -57 -15 -24 -18 -65 -20 -59 -2 24 69 18 65 91 61 36 -2 68 -5 70 -7z
m780 4 c26 -1 33 -6 37 -27 3 -19 1 -24 -10 -20 -8 3 -38 6 -68 6 -44 0 -54 3
-58 19 -6 26 -2 29 36 26 18 -2 46 -3 63 -4z m-982 -20 c16 -17 16 -25 6 -56
-16 -48 -34 -32 -35 30 -1 50 4 54 29 26z m386 10 c0 -16 -12 -19 -88 -25 -54
-3 -72 -1 -72 8 0 7 3 16 7 19 10 11 153 8 153 -2z m455 -4 c16 -12 14 -14
-24 -13 -54 1 -54 14 0 25 3 0 13 -5 24 -12z m-75 -7 c0 -5 -7 -10 -16 -10 -8
0 -12 5 -9 10 3 6 10 10 16 10 5 0 9 -4 9 -10z m-460 -40 c0 -6 -41 -10 -102
-10 -70 0 -98 3 -88 10 20 13 190 13 190 0z m700 0 c10 -7 -20 -10 -93 -10
-70 0 -106 4 -102 10 8 13 175 13 195 0z m-630 -40 c0 -11 -7 -20 -15 -20 -8
0 -15 2 -15 4 0 2 -3 11 -6 20 -4 12 0 16 15 16 14 0 21 -6 21 -20z m410 12
c0 -10 -22 -32 -32 -32 -4 0 -8 9 -8 20 0 13 7 20 20 20 11 0 20 -4 20 -8z
m-466 -27 l16 -25 -154 0 c-155 0 -174 4 -162 35 4 12 32 15 145 15 137 0 139
0 155 -25z m779 11 c12 -30 -16 -36 -160 -36 -146 0 -164 5 -131 38 18 18 284
17 291 -2z m-1145 -9 c27 -21 7 -27 -93 -27 -84 0 -105 3 -105 14 0 8 6 16 13
19 23 9 172 4 185 -6z m2037 -57 c3 -6 3 -19 0 -30 -6 -20 -17 -20 -1444 -20
-1267 0 -1440 2 -1451 15 -10 12 -10 18 0 30 11 13 184 15 1451 15 956 0 1440
-3 1444 -10z"/>
<path d="M1560 1830 c0 -5 4 -10 8 -10 5 0 9 -24 11 -52 1 -29 6 -57 11 -62
13 -13 27 25 24 69 -1 22 2 45 8 52 8 10 2 13 -26 13 -20 0 -36 -4 -36 -10z"/>
<path d="M1787 1832 c6 -4 13 -34 15 -67 2 -45 7 -60 18 -60 11 0 16 15 18 60
2 33 9 63 15 67 7 4 -8 8 -33 8 -25 0 -40 -4 -33 -8z"/>
<path d="M2037 1363 c-4 -3 -7 -37 -7 -75 l0 -68 115 0 115 0 0 75 0 75 -108
0 c-60 0 -112 -3 -115 -7z m75 -40 c23 -21 23 -36 -2 -58 -25 -23 -39 -12 -16
14 15 16 15 19 1 31 -15 13 -20 30 -8 30 3 0 15 -7 25 -17z m107 -69 c2 -2
-19 -4 -48 -4 -33 0 -50 4 -46 10 6 10 84 5 94 -6z"/>
<path d="M1651 1034 c-24 -31 -25 -37 -10 -67 16 -30 28 -37 65 -37 38 0 64
27 64 67 0 62 -80 87 -119 37z m92 -15 c19 -27 11 -54 -19 -68 -46 -21 -88 24
-64 69 15 27 64 27 83 -1z"/>
<path d="M2680 1445 c0 -33 -4 -45 -15 -45 -10 0 -15 -11 -15 -35 0 -28 -4
-35 -20 -35 -20 0 -25 -15 -14 -44 8 -20 34 -21 34 -1 0 23 198 22 215 -2 16
-22 35 -8 35 28 0 19 -5 29 -15 29 -9 0 -15 10 -15 26 0 17 -6 28 -20 31 -16
4 -20 14 -20 49 l0 44 -75 0 -75 0 0 -45z m150 -75 l0 -30 -65 0 c-36 0 -68
-1 -72 -2 -5 -2 -9 12 -11 30 l-3 32 75 0 76 0 0 -30z"/>
<path d="M538 1434 c-36 -19 -48 -43 -48 -97 0 -46 22 -77 65 -91 l20 -6 -20
15 c-45 32 -55 49 -55 91 0 35 5 47 31 68 35 30 64 33 99 10 l25 -16 -24 21
c-27 24 -55 26 -93 5z"/>
<path d="M597 1389 c4 -13 8 -18 11 -10 2 7 -1 18 -6 23 -8 8 -9 4 -5 -13z"/>
<path d="M650 1389 c0 -8 -7 -27 -15 -43 -12 -23 -12 -26 -1 -17 15 13 30 60
21 69 -3 3 -5 -1 -5 -9z"/>
<path d="M541 1372 c-11 -21 11 -62 32 -62 7 0 4 7 -7 15 -13 10 -17 22 -14
40 6 30 2 32 -11 7z"/>
<path d="M451 1314 c0 -11 3 -14 6 -6 3 7 2 16 -1 19 -3 4 -6 -2 -5 -13z"/>
<path d="M130 1285 c0 -7 -7 -18 -16 -23 -14 -8 -13 -12 9 -36 23 -25 25 -25
30 -6 3 11 12 20 21 20 9 0 16 5 16 10 0 6 -7 10 -16 10 -9 0 -18 9 -21 20 -6
23 -23 27 -23 5z"/>
<path d="M460 1271 c0 -10 39 -36 45 -29 2 2 -8 11 -21 21 -13 10 -24 13 -24
8z"/>
<path d="M2590 975 c0 -256 2 -295 15 -295 8 0 15 7 15 15 0 13 22 15 140 15
118 0 140 -2 140 -15 0 -8 7 -15 15 -15 13 0 15 39 15 295 0 254 -2 295 -15
295 -13 0 -15 -38 -17 -262 l-3 -263 -137 -3 -138 -3 0 266 c0 229 -2 265 -15
265 -13 0 -15 -39 -15 -295z"/>
<path d="M617 1234 c12 -11 24 -30 26 -44 4 -21 5 -21 4 4 -1 19 -10 34 -27
44 l-25 14 22 -18z"/>
<path d="M3104 1155 c-8 -20 4 -35 27 -35 14 0 19 7 19 25 0 18 -5 25 -20 25
-11 0 -23 -7 -26 -15z"/>
<path d="M616 1145 c-11 -8 -15 -15 -9 -15 6 0 16 7 23 15 16 19 11 19 -14 0z"/>
<path d="M553 1104 c-7 -19 7 -46 28 -52 8 -2 5 2 -5 10 -13 10 -17 22 -13 37
6 25 -1 28 -10 5z"/>
<path d="M231 1056 c-9 -10 -8 -16 4 -26 19 -16 41 1 32 24 -8 20 -21 20 -36
2z"/>
</g>
</svg>
